<svg width="271" height="60" viewBox="0 0 271 60" fill="none" xmlns="http://www.w3.org/2000/svg">
<g clip-path="url(#clip0_642_1502)">
<path d="M30.0246 41.87V43.52H0.93457V0.160034H10.0246V41.87H30.0246Z" fill="#231F20"/>
<path d="M75.3046 43.52H66.2146V0.0999756H75.3046V43.52Z" fill="#231F20"/>
<path d="M119.935 43.52H110.855V10.01C110.847 8.70073 111.119 7.40495 111.655 6.21002C112.659 3.85664 114.527 1.97775 116.875 0.960016C118.069 0.423642 119.365 0.15079 120.675 0.160016C121.993 0.157333 123.299 0.419163 124.515 0.930016C125.701 1.43131 126.773 2.16973 127.665 3.10002C128.56 4.01603 129.281 5.08666 129.795 6.26002C130.322 7.45712 130.591 8.75192 130.585 10.06C130.603 11.4433 130.301 12.812 129.705 14.06C131.303 14.4799 132.818 15.1698 134.185 16.1C136.896 17.9326 138.944 20.5909 140.025 23.68C141.241 27.1595 141.116 30.9676 139.675 34.36C138.907 36.1347 137.803 37.7443 136.425 39.1C135.044 40.4669 133.415 41.5566 131.625 42.31C129.787 43.1001 127.805 43.5018 125.805 43.49C124.796 43.4913 123.79 43.3841 122.805 43.17C121.819 42.9605 120.858 42.6523 119.935 42.25V43.52ZM119.935 40.46C121.754 41.4116 123.781 41.8962 125.835 41.87C127.632 41.8821 129.413 41.5212 131.065 40.81C132.646 40.1334 134.085 39.1629 135.305 37.95C136.516 36.7345 137.489 35.3032 138.175 33.73C138.884 32.0921 139.245 30.3248 139.235 28.54C139.253 26.8296 138.941 25.1318 138.315 23.54C137.732 22.0585 136.874 20.7011 135.785 19.54C134.671 18.3937 133.368 17.4467 131.935 16.74C130.436 15.9831 128.836 15.4443 127.185 15.14C127.698 14.3823 128.133 13.5749 128.485 12.73C128.804 11.8597 128.957 10.9369 128.935 10.01C128.94 8.92292 128.719 7.84663 128.285 6.85002C127.868 5.87133 127.267 4.98186 126.515 4.23002C125.749 3.46074 124.839 2.85078 123.837 2.4354C122.834 2.02002 121.76 1.80746 120.675 1.81002H119.935V40.46Z" fill="#231F20"/>
<path d="M189.525 10.31L185.165 0.160034H195.165L213.635 43.52H203.635L198.205 30.78H183.155L178.155 43.52H176.385L189.525 10.31ZM183.805 29.1H197.555L190.415 12.46L183.805 29.1Z" fill="#231F20"/>
<path d="M251.005 14.7C250.361 13.9347 249.872 13.0517 249.565 12.1C249.266 11.2106 249.114 10.2784 249.115 9.34001C249.116 8.12474 249.4 6.92646 249.945 5.84001C250.5 4.72307 251.272 3.72726 252.215 2.91001C253.228 2.0468 254.386 1.36969 255.635 0.910011C257.009 0.394551 258.467 0.140193 259.935 0.16001C261.59 0.158059 263.227 0.498526 264.745 1.16001C266.243 1.81664 267.56 2.82521 268.585 4.10001L267.295 4.91001C266.392 3.81814 265.24 2.96046 263.935 2.41001C262.617 1.85823 261.203 1.57601 259.775 1.58001C258.6 1.57734 257.434 1.77344 256.325 2.16001C255.224 2.55087 254.207 3.14444 253.325 3.91001L268.015 21.91C269.895 24.0858 270.931 26.8645 270.935 29.74C270.937 31.5617 270.516 33.3589 269.705 34.99C268.872 36.6666 267.717 38.1619 266.305 39.39C264.812 40.6911 263.094 41.7079 261.235 42.39C259.222 43.1499 257.086 43.5329 254.935 43.52C252.418 43.5322 249.926 43.025 247.615 42.03C245.362 41.0832 243.376 39.5961 241.835 37.7L243.195 36.89C244.565 38.6102 246.351 39.9525 248.385 40.79C250.457 41.6652 252.685 42.1108 254.935 42.1C256.256 42.0979 257.573 41.9333 258.855 41.61C260.117 41.2983 261.337 40.8314 262.485 40.22C263.59 39.6448 264.618 38.9325 265.545 38.1C266.462 37.2759 267.233 36.3021 267.825 35.22L251.005 14.7Z" fill="#231F20"/>
<path d="M18.7246 47.6799L20.1546 49.0999L9.27459 59.9999L7.82458 58.5299L18.7246 47.6799Z" fill="#231F20"/>
</g>
<defs>
<clipPath id="clip0_642_1502">
<rect width="269.95" height="59.9" fill="white" transform="translate(0.93457 0.0999756)"/>
</clipPath>
</defs>
</svg>
